# xmcd
#
# Track frame offsets: 
#        150
#        17560
#        32725
#        48427
#        63113
#        78755
#        95386
#        109648
#        128925
#        149677
#        164707
#
# Disc length: 2419 seconds
#
# Revision: 0
# Processed by: cddbd v1.5.2PL0 Copyright (c) Steve Scherf et al.
# Submitted via: ExactAudioCopy v0.90b4
#
DISCID=8d09710b
DTITLE=Kiko Rodriguez - Otra Vez Con Amor
DYEAR=2007
DGENRE=Latin
TTITLE0=Para Que Nunca Te Me Vayas
TTITLE1=La Tirana
TTITLE2=Llora
TTITLE3=Loco
TTITLE4=Me Enamoré
TTITLE5=Por Un Beso Tuyo
TTITLE6=Nos Estorbó La Ropa
TTITLE7=La Llamada
TTITLE8=Ayúdame A Encontraria
TTITLE9=Fruta Prohibida
TTITLE10=Flor Pálida
EXTD=
EXTT0=
EXTT1=
EXTT2=
EXTT3=
EXTT4=
EXTT5=
EXTT6=
EXTT7=
EXTT8=
EXTT9=
EXTT10=
PLAYORDER=
